<?xml version="1.0" encoding="UTF-8"?>
<svg version="1.1" xmlns="http://www.w3.org/2000/svg" width="28" height="28">
<path d="M0 0 C0.66 0 1.32 0 2 0 C2 0.66 2 1.32 2 2 C5.3 2.66 8.6 3.32 12 4 C12 4.66 12 5.32 12 6 C12.66 6.66 13.32 7.32 14 8 C12.02 8.99 12.02 8.99 10 10 C10.06960937 10.73605469 10.13921875 11.47210938 10.2109375 12.23046875 C10.63935419 19.95216953 10.63935419 19.95216953 8.875 22.84375 C6.44473666 25.02086091 4.16404382 25.9658242 1 26.625 C-2.16404382 25.9658242 -4.44473666 25.02086091 -6.875 22.84375 C-9.21683285 19.00574616 -8.40858511 14.3204092 -8 10 C-9.32 9.34 -10.64 8.68 -12 8 C-11.3203125 6.078125 -11.3203125 6.078125 -10 4 C-7.6171875 3.171875 -7.6171875 3.171875 -4.875 2.75 C-3.50988281 2.52570313 -3.50988281 2.52570313 -2.1171875 2.296875 C-1.41851562 2.19890625 -0.71984375 2.1009375 0 2 C0 1.34 0 0.68 0 0 Z " fill="#1FA239" transform="translate(13,1)"/>
<path d="M0 0 C0.66 0.33 1.32 0.66 2 1 C1.835 1.969375 1.67 2.93875 1.5 3.9375 C1.14007707 5.95983571 1.14007707 5.95983571 1 8 C1 14 1 20 1 26 C-1.82123442 25.50406161 -3.82936534 25.10145845 -6.3125 23.625 C-9.03032025 19.39727962 -8.30349766 14.88968458 -8 10 C-9.32 9.34 -10.64 8.68 -12 8 C-11.3203125 6.078125 -11.3203125 6.078125 -10 4 C-7.6171875 3.171875 -7.6171875 3.171875 -4.875 2.75 C-3.50988281 2.52570313 -3.50988281 2.52570313 -2.1171875 2.296875 C-1.41851562 2.19890625 -0.71984375 2.1009375 0 2 C0 1.34 0 0.68 0 0 Z " fill="#18882D" transform="translate(13,1)"/>
</svg>
