<?xml version="1.0" encoding="UTF-8"?>
<svg version="1.1" xmlns="http://www.w3.org/2000/svg" width="260" height="260">
<path d="M0 0 C1.6155376 -0.00599127 3.23107236 -0.01279819 4.84660339 -0.02035522 C9.21877936 -0.03796386 13.59087694 -0.0427085 17.96308494 -0.0439868 C20.7003464 -0.04541214 23.43758818 -0.04968904 26.17484474 -0.05498123 C35.74059938 -0.07346621 45.30629841 -0.08165398 54.87207031 -0.08007812 C63.76186283 -0.07887792 72.65141211 -0.09996046 81.54114312 -0.13156545 C89.19495897 -0.15779812 96.84869573 -0.16844246 104.50255615 -0.16716731 C109.06423209 -0.16665962 113.62569181 -0.17223472 118.18732262 -0.19352341 C122.48272382 -0.21302345 126.77770518 -0.21295074 131.07312202 -0.19849014 C132.63991796 -0.19641527 134.206741 -0.20102306 135.77349091 -0.21321106 C149.00384819 -0.30937636 160.83036854 1.88741115 172.05981445 9.29052734 C172.7971582 9.77005859 173.53450195 10.24958984 174.29418945 10.74365234 C185.55817231 18.7449643 193.36977498 31.26078689 196.62958145 44.62882423 C197.62019085 50.75738274 197.35493085 57.03614847 197.3503418 63.23071289 C197.35633307 64.84625049 197.36313999 66.46178525 197.37069702 68.07731628 C197.38830566 72.44949225 197.39305029 76.82158983 197.39432859 81.19379783 C197.39575394 83.93105929 197.40003084 86.66830107 197.40532303 89.40555763 C197.42380801 98.97131227 197.43199577 108.5370113 197.43041992 118.1027832 C197.42921972 126.99257572 197.45030226 135.882125 197.48190725 144.77185601 C197.50813991 152.42567186 197.51878426 160.07940862 197.5175091 167.73326904 C197.51700142 172.29494498 197.52257652 176.8564047 197.5438652 181.41803551 C197.56336525 185.71343671 197.56329254 190.00841807 197.54883194 194.30383492 C197.54675707 195.87063085 197.55136486 197.43745389 197.56355286 199.0042038 C197.65971816 212.23456108 195.46293065 224.06108143 188.05981445 235.29052734 C187.5802832 236.02787109 187.10075195 236.76521484 186.60668945 237.52490234 C178.60537749 248.7888852 166.08955491 256.60048787 152.72151756 259.86029434 C146.59295906 260.85090374 140.31419333 260.58564374 134.11962891 260.58105469 C132.5040913 260.58704596 130.88855655 260.59385288 129.27302551 260.60140991 C124.90084955 260.61901855 120.52875197 260.62376319 116.15654397 260.62504148 C113.41928251 260.62646683 110.68204072 260.63074373 107.94478416 260.63603592 C98.37902953 260.6545209 88.8133305 260.66270866 79.24755859 260.66113281 C70.35776607 260.65993261 61.4682168 260.68101515 52.57848579 260.71262014 C44.92466993 260.7388528 37.27093317 260.74949715 29.61707276 260.74822199 C25.05539682 260.74771431 20.4939371 260.75328941 15.93230629 260.77457809 C11.63690508 260.79407814 7.34192373 260.79400543 3.04650688 260.77954483 C1.47971094 260.77746996 -0.08711209 260.78207775 -1.653862 260.79426575 C-14.88421929 260.89043105 -26.71073964 258.69364354 -37.94018555 251.29052734 C-38.6775293 250.81099609 -39.41487305 250.33146484 -40.17456055 249.83740234 C-51.4385434 241.83609038 -59.25014608 229.3202678 -62.50995255 215.95223045 C-63.50056195 209.82367195 -63.23530195 203.54490622 -63.23071289 197.3503418 C-63.23670416 195.73480419 -63.24351108 194.11926944 -63.25106812 192.5037384 C-63.26867675 188.13156244 -63.27342139 183.75946486 -63.27469969 179.38725686 C-63.27612503 176.6499954 -63.28040193 173.91275361 -63.28569412 171.17549706 C-63.3041791 161.60974242 -63.31236687 152.04404339 -63.31079102 142.47827148 C-63.30959081 133.58847896 -63.33067335 124.69892969 -63.36227834 115.80919868 C-63.38851101 108.15538282 -63.39915535 100.50164606 -63.3978802 92.84778565 C-63.39737251 88.28610971 -63.40294761 83.72464999 -63.4242363 79.16301918 C-63.44373634 74.86761797 -63.44366363 70.57263662 -63.42920303 66.27721977 C-63.42712816 64.71042384 -63.43173595 63.1436008 -63.44392395 61.57685089 C-63.54008926 48.3464936 -61.34330174 36.51997325 -53.94018555 25.29052734 C-53.22088867 24.18451172 -53.22088867 24.18451172 -52.48706055 23.05615234 C-44.48574859 11.79216949 -31.969926 3.98056682 -18.60188866 0.72076035 C-12.47333015 -0.26984905 -6.19456442 -0.00458906 0 0 Z " fill="#FEFEFE" transform="translate(62.940185546875,-0.29052734375)"/>
<path d="M0 0 C0.98811676 -0.00686325 1.97623352 -0.0137265 2.99429321 -0.02079773 C6.24203093 -0.03901202 9.48928298 -0.03523508 12.73706055 -0.02954102 C15.00856176 -0.03410603 17.2800616 -0.03941255 19.55155945 -0.04542542 C24.3067283 -0.05434651 29.06172912 -0.05194546 33.81689453 -0.04199219 C39.88939419 -0.03051586 45.96131118 -0.0506992 52.03373432 -0.07990932 C56.72399031 -0.09832061 61.41410802 -0.09796881 66.1043911 -0.0922718 C68.3421326 -0.09211913 70.57988381 -0.09811859 72.81759071 -0.11056328 C99.82909986 -0.23960811 99.82909986 -0.23960811 109.4440918 8.89233398 C114.45903965 14.43743347 115.20955086 20.07554229 115.1706543 27.31030273 C114.4085861 33.8707159 111.4468657 39.95067312 107.8112793 45.40405273 C107.1512793 45.40405273 106.4912793 45.40405273 105.8112793 45.40405273 C105.4812793 46.72405273 105.1512793 48.04405273 104.8112793 49.40405273 C104.1512793 49.40405273 103.4912793 49.40405273 102.8112793 49.40405273 C102.4071582 50.2799707 102.4071582 50.2799707 101.99487305 51.17358398 C98.23646273 58.25626481 91.81000799 63.20978273 85.64331055 68.11108398 C82.899793 70.33238716 80.28881727 72.64507938 77.6862793 75.02905273 C73.24578265 79.07815945 68.61448604 82.7958467 63.8112793 86.40405273 C72.73862446 94.03013081 72.73862446 94.03013081 81.8737793 101.40405273 C95.49925197 112.26461618 112.36457374 126.28417701 115.3112793 144.49389648 C115.42693348 149.76339016 114.57168035 154.45292476 112.8112793 159.40405273 C112.1512793 159.40405273 111.4912793 159.40405273 110.8112793 159.40405273 C110.56635742 160.16331055 110.32143555 160.92256836 110.0690918 161.70483398 C108.64354638 164.76400131 107.48610876 165.77215136 104.6862793 167.59155273 C103.96182617 168.08010742 103.23737305 168.56866211 102.4909668 169.07202148 C94.58161343 173.00363883 86.40974577 172.8009333 77.7487793 172.84155273 C76.50805664 172.87442383 75.26733398 172.90729492 73.98901367 172.94116211 C66.57517673 172.98479625 62.23748112 172.64124318 56.8112793 167.40405273 C54.83323569 163.44796553 55.24563831 158.7054106 55.8112793 154.40405273 C58.2453105 151.18060601 60.47332495 149.62935563 63.8112793 147.40405273 C66.44677734 147.17700195 66.44677734 147.17700195 69.57299805 147.20874023 C71.25039062 147.2184082 71.25039062 147.2184082 72.96166992 147.22827148 C74.71253906 147.2534082 74.71253906 147.2534082 76.4987793 147.27905273 C78.26705078 147.29258789 78.26705078 147.29258789 80.07104492 147.30639648 C82.98465956 147.32998851 85.89786822 147.36290733 88.8112793 147.40405273 C82.94336626 136.3145125 75.41400058 128.41323241 65.51489258 120.7277832 C63.59404431 119.23525823 61.68527261 117.72791671 59.77612305 116.22045898 C52.0147081 110.11695626 44.16340579 104.16015309 36.1862793 98.34155273 C28.06630922 92.41446428 20.24374161 86.18827279 12.49633789 79.78491211 C10.2127315 77.9135592 7.8867251 76.09800239 5.5612793 74.27905273 C0.23719241 70.02692965 -4.77638013 65.45352123 -9.72924805 60.7800293 C-11.12143818 59.46748604 -12.52397465 58.1659428 -13.92700195 56.86499023 C-19.78670131 51.26315322 -24.22934723 45.47593368 -28.1887207 38.40405273 C-28.8280957 37.29030273 -29.4674707 36.17655273 -30.1262207 35.02905273 C-31.92901657 28.87833741 -32.52877498 22.1698534 -30.3449707 16.03295898 C-23.54966783 4.25596447 -13.05049808 -0.06406049 0 0 Z " fill="#C24C55" transform="translate(88.188720703125,43.595947265625)"/>
<path d="M0 0 C3.60047679 1.01731325 6.27745109 2.75801535 9.20703125 5.0390625 C9.95791016 5.61914062 10.70878906 6.19921875 11.48242188 6.796875 C12.25134766 7.40015625 13.02027344 8.0034375 13.8125 8.625 C14.60076172 9.23601562 15.38902344 9.84703125 16.20117188 10.4765625 C18.13820974 11.9792343 20.07092079 13.48713386 22 15 C18.73197232 17.62543797 15.44396047 20.22324503 12.14160156 22.80517578 C-9.85167886 38.75924692 -9.85167886 38.75924692 -26 60 C-25.30438965 59.98428955 -24.6087793 59.9685791 -23.89208984 59.95239258 C-20.71981029 59.88977137 -17.54766115 59.85092323 -14.375 59.8125 C-12.73337891 59.77479492 -12.73337891 59.77479492 -11.05859375 59.73632812 C-0.80235652 59.6430896 -0.80235652 59.6430896 4 63 C6.78945399 66.22989409 7.89519026 68.2663318 8.5 72.5 C7.8994841 76.70361133 6.72285832 78.76200632 4 82 C-1.65206276 86.23700309 -7.87310365 85.48592377 -14.60961914 85.44604492 C-16.79605191 85.4375638 -18.97984246 85.46627039 -21.16601562 85.49804688 C-28.67323508 85.53529875 -34.55147011 85.25379509 -41 81 C-42.3303125 80.13375 -42.3303125 80.13375 -43.6875 79.25 C-48.54250791 74.52620852 -52.10196506 68.75862459 -52.25 61.875 C-51.99116114 47.2623698 -42.0231535 34.7562648 -32 25 C-29.01251491 22.32648627 -25.92830247 19.81341656 -22.7578125 17.36035156 C-20.6330228 15.71600042 -18.52002382 14.05692372 -16.40625 12.3984375 C-13.22301275 9.90724973 -10.03749656 7.41911097 -6.84375 4.94140625 C-6.17537109 4.42263916 -5.50699219 3.90387207 -4.81835938 3.36938477 C-3.25279775 2.19037897 -1.63069925 1.08713284 0 0 Z " fill="#2DD8E2" transform="translate(109,131)"/>
<path d="M0 0 C31.02 0 62.04 0 94 0 C90.69017306 9.92948081 84.4228618 15.82408105 76.6484375 22.640625 C74.89404237 24.20353747 73.18610571 25.82033333 71.53125 27.48828125 C68.36803776 30.62708599 64.97585931 33.42091813 61.53125 36.2434082 C58.6058528 38.64776406 55.7771652 41.11471492 53 43.6875 C50 46 50 46 48.00415039 45.78125 C44.7141004 44.49873569 42.14950959 42.2075012 39.4375 40 C38.81689697 39.50234131 38.19629395 39.00468262 37.55688477 38.49194336 C36.29328221 37.47667888 35.03211215 36.45837919 33.7734375 35.43701172 C32.22106807 34.17913088 30.6582465 32.93417161 29.09375 31.69140625 C18.25372755 23.00344708 7.17690883 14.09883725 0 2 C0 1.34 0 0.68 0 0 Z " fill="#FBF9FC" transform="translate(83,69)"/>
<path d="M0 0 C0.66 0.33 1.32 0.66 2 1 C3.88472859 1.15344209 5.77427874 1.24959571 7.6640625 1.31640625 C9.34628906 1.37924805 9.34628906 1.37924805 11.0625 1.44335938 C12.238125 1.48267578 13.41375 1.52199219 14.625 1.5625 C15.80835937 1.60568359 16.99171875 1.64886719 18.2109375 1.69335938 C21.14050328 1.79967426 24.07015588 1.90170642 27 2 C26.01 4.31 25.02 6.62 24 9 C24.69561035 8.98428955 25.3912207 8.9685791 26.10791016 8.95239258 C29.28018971 8.88977137 32.45233885 8.85092323 35.625 8.8125 C37.26662109 8.77479492 37.26662109 8.77479492 38.94140625 8.73632812 C49.19764348 8.6430896 49.19764348 8.6430896 54 12 C56.78945399 15.22989409 57.89519026 17.2663318 58.5 21.5 C57.8994841 25.70361133 56.72285832 27.76200632 54 31 C48.34793724 35.23700309 42.12689635 34.48592377 35.39038086 34.44604492 C33.20394809 34.4375638 31.02015754 34.46627039 28.83398438 34.49804688 C21.32676492 34.53529875 15.44852989 34.25379509 9 30 C7.6696875 29.13375 7.6696875 29.13375 6.3125 28.25 C2.18710505 24.23610221 -1.6857165 18.83718224 -2.16796875 12.94921875 C-2.20883647 8.21673728 -1.82613168 4.45119597 0 0 Z " fill="#18F382" transform="translate(59,182)"/>
<path d="M0 0 C0.66 0.33 1.32 0.66 2 1 C1.34 2.32 0.68 3.64 0 5 C0.66 4.67 1.32 4.34 2 4 C2.19294408 8.82360189 1.75747614 12.49646738 0 17 C-0.66 16.67 -1.32 16.34 -2 16 C-2 15.34 -2 14.68 -2 14 C-3.65 14.66 -5.3 15.32 -7 16 C-6.67 14.68 -6.34 13.36 -6 12 C-6.99 11.67 -7.98 11.34 -9 11 C-6.62245212 6.50907623 -3.6393937 3.47764287 0 0 Z " fill="#4710F8" transform="translate(183,57)"/>
<path d="M0 0 C0.66 0.33 1.32 0.66 2 1 C3.88472859 1.15344209 5.77427874 1.24959571 7.6640625 1.31640625 C9.34628906 1.37924805 9.34628906 1.37924805 11.0625 1.44335938 C12.238125 1.48267578 13.41375 1.52199219 14.625 1.5625 C15.80835937 1.60568359 16.99171875 1.64886719 18.2109375 1.69335938 C21.14050328 1.79967426 24.07015588 1.90170642 27 2 C26.34 3.65 25.68 5.3 25 7 C24.34 6.67 23.68 6.34 23 6 C23 5.01 23 4.02 23 3 C22.35417969 3.16628906 21.70835938 3.33257812 21.04296875 3.50390625 C16.35841465 4.26762688 11.70761622 4.00353077 6.97460938 3.87304688 C4.98284289 3.8434748 2.99016042 3.91473712 1 4 C0.34 4.66 -0.32 5.32 -1 6 C-1.042721 4.33388095 -1.04063832 2.66617115 -1 1 C-0.67 0.67 -0.34 0.34 0 0 Z " fill="#1FF0BC" transform="translate(59,182)"/>
<path d="M0 0 C0.66 0.33 1.32 0.66 2 1 C1.34 1.66 0.68 2.32 0 3 C-0.474375 4.134375 -0.94875 5.26875 -1.4375 6.4375 C-2.75661121 9.44507356 -3.51995882 10.99234762 -6 13 C-6.99 12.34 -7.98 11.68 -9 11 C-6.62245212 6.50907623 -3.6393937 3.47764287 0 0 Z " fill="#6B0CEE" transform="translate(183,57)"/>
<path d="M0 0 C0.33 0.99 0.66 1.98 1 3 C-0.9375 6.1875 -0.9375 6.1875 -3 9 C-3.99 8.67 -4.98 8.34 -6 8 C-2.25 2.25 -2.25 2.25 0 0 Z " fill="#540AF3" transform="translate(184,61)"/>
</svg>
