<?xml version="1.0" standalone="no"?>
<!DOCTYPE svg PUBLIC "-//W3C//DTD SVG 20010904//EN"
 "http://www.w3.org/TR/2001/REC-SVG-20010904/DTD/svg10.dtd">
<svg version="1.0" xmlns="http://www.w3.org/2000/svg"
 width="32.000000pt" height="32.000000pt" viewBox="0 0 32.000000 32.000000"
 preserveAspectRatio="xMidYMid meet">

<g transform="translate(0.000000,32.000000) scale(0.100000,-0.100000)"
fill="#000000" stroke="none">
<path d="M20 300 c-18 -18 -20 -33 -20 -140 0 -107 2 -122 20 -140 18 -18 33
-20 140 -20 161 0 160 -1 160 160 0 161 1 160 -160 160 -107 0 -122 -2 -140
-20z m188 -57 c2 -21 11 -34 28 -41 22 -11 24 -17 24 -75 0 -35 -3 -66 -6 -70
-3 -3 -17 -1 -30 5 -17 8 -31 7 -53 -2 -27 -11 -35 -9 -87 21 l-57 32 26 21
c15 12 27 34 29 51 2 23 14 37 53 62 27 18 54 32 60 30 5 -2 11 -17 13 -34z"/>
<path d="M172 251 c-11 -7 -11 -9 2 -14 10 -4 16 -1 16 8 0 17 -1 17 -18 6z"/>
<path d="M118 219 c-17 -10 -26 -49 -10 -49 18 1 33 19 30 38 -2 17 -6 19 -20
11z"/>
<path d="M150 212 c0 -18 18 -42 32 -42 17 0 7 40 -12 50 -17 9 -20 8 -20 -8z"/>
<path d="M210 172 c0 -19 27 -38 39 -27 7 8 -12 38 -27 43 -7 2 -12 -5 -12
-16z"/>
<path d="M113 153 c-7 -2 -13 -16 -13 -29 0 -22 2 -23 20 -12 11 7 20 21 20
30 0 18 -5 20 -27 11z"/>
<path d="M150 150 c0 -5 7 -10 16 -10 8 0 12 5 9 10 -3 6 -10 10 -16 10 -5 0
-9 -4 -9 -10z"/>
<path d="M181 131 c-17 -11 -5 -31 19 -31 24 0 36 20 19 31 -8 5 -16 9 -19 9
-3 0 -11 -4 -19 -9z"/>
<path d="M56 121 c-3 -5 1 -11 9 -15 9 -3 15 0 15 9 0 16 -16 20 -24 6z"/>
<path d="M125 96 c-18 -13 -18 -14 3 -20 12 -4 29 -3 38 2 16 9 15 11 -3 20
-15 9 -25 8 -38 -2z"/>
<path d="M227 94 c-8 -8 1 -24 14 -24 5 0 9 7 9 15 0 15 -12 20 -23 9z"/>
</g>
</svg>
