<?xml version="1.0" encoding="UTF-8"?>
<svg version="1.1" xmlns="http://www.w3.org/2000/svg" width="28" height="28">
<path d="M0 0 C9.24 0 18.48 0 28 0 C28 9.24 28 18.48 28 28 C18.76 28 9.52 28 0 28 C0 18.76 0 9.52 0 0 Z " fill="#9046FF" transform="translate(0,0)"/>
<path d="M0 0 C3.105961 2.69728192 3.90732224 4.36284037 4.5 8.4375 C3.88701517 12.80501692 3.13466105 14.86533895 0 18 C-3.06280389 18.5008027 -5.92618988 18.3546704 -9 18 C-9 16.68 -9 15.36 -9 14 C-9.99 14 -10.98 14 -12 14 C-11.57709963 12.03846209 -11.13618382 10.08080125 -10.6875 8.125 C-10.44386719 7.03445312 -10.20023438 5.94390625 -9.94921875 4.8203125 C-8.23941455 -0.25984648 -4.88332605 -0.69761801 0 0 Z " fill="#F1EFF5" transform="translate(18,5)"/>
</svg>
