<?xml version="1.0" encoding="UTF-8"?>
<svg version="1.1" xmlns="http://www.w3.org/2000/svg" width="32" height="32">
<path d="M0 0 C10.56 0 21.12 0 32 0 C32 10.56 32 21.12 32 32 C21.44 32 10.88 32 0 32 C0 21.44 0 10.88 0 0 Z " fill="#121415" transform="translate(0,0)"/>
<path d="M0 0 C10.14738806 4.10727612 10.14738806 4.10727612 11.625 7.0625 C11.69616382 9.43652501 11.70909085 11.81250677 11.6875 14.1875 C11.67847656 15.46882813 11.66945313 16.75015625 11.66015625 18.0703125 C11.64855469 19.05773437 11.63695313 20.04515625 11.625 21.0625 C4.51856125 21.77978541 -0.90146032 21.45961817 -6.734375 17.04296875 C-9.30531585 13.93947587 -9.43828769 11.34308791 -9.0703125 7.4140625 C-7.7514764 2.95372917 -4.88810641 0.12863438 0 0 Z " fill="#2BD85C" transform="translate(14.375,4.9375)"/>
<path d="M0 0 C2.67228175 1.09632072 5.02515163 2.4147425 7.4375 4 C6.839375 4.268125 6.24125 4.53625 5.625 4.8125 C3.32874104 6.05904058 2.03219858 6.93414048 0.4375 9 C0.07479516 11.74243563 0.07479516 11.74243563 0.25 14.6875 C0.27707031 15.68136719 0.30414063 16.67523437 0.33203125 17.69921875 C0.36683594 18.45847656 0.40164063 19.21773437 0.4375 20 C-2.99541599 18.76033589 -5.92471906 17.56616698 -8.5625 15 C-9.45246046 11.59041124 -9.28907482 8.43620723 -8.5625 5 C-6.44505399 1.7570013 -3.99720311 0 0 0 Z " fill="#F1F3F1" transform="translate(14.5625,5)"/>
<path d="M0 0 C0.25 2.75 0.25 2.75 0 6 C-2 8.375 -2 8.375 -4 10 C-4.36814024 3.49618902 -4.36814024 3.49618902 -2.5625 1.0625 C-1 0 -1 0 0 0 Z " fill="#151D19" transform="translate(18,11)"/>
</svg>
